<?xml version="1.0" encoding="iso-8859-1"?>
<!-- Uploaded to: SVG Repo, www.svgrepo.com, Generator: SVG Repo Mixer Tools -->
<svg fill="#000000" height="800px" width="800px" version="1.1" id="Layer_1" xmlns="http://www.w3.org/2000/svg" xmlns:xlink="http://www.w3.org/1999/xlink" 
	 viewBox="0 0 512 512" xml:space="preserve">
<g>
	<g>
		<g>
			<polygon points="366.933,448.322 376.559,426.664 357.308,426.664 			"/>
			<polygon points="145.065,63.673 135.439,85.331 154.691,85.331 			"/>
			<path d="M418.133,0H93.867c-14.114,0-25.6,11.477-25.6,25.6v460.8c0,14.114,11.486,25.6,25.6,25.6h324.267
				c14.114,0,25.6-11.486,25.6-25.6V25.6C443.733,11.477,432.248,0,418.133,0z M204.8,34.133h196.267
				c4.719,0,8.533,3.814,8.533,8.533V332.8c0,4.71-3.814,8.533-8.533,8.533c-4.719,0-8.533-3.823-8.533-8.533V51.2H204.8
				c-4.719,0-8.533-3.823-8.533-8.533C196.267,37.948,200.081,34.133,204.8,34.133z M215.885,142.259
				c14.592-12.041,33.766-16.845,52.625-13.193c25.412,4.915,45.363,25.429,49.647,51.055c2.065,12.339,0.495,24.789-4.352,35.925
				c10.487,0.597,20.676,4.019,30.456,10.223c18.722,11.895,30.114,29.815,31.24,49.161c0.973,16.862-5.077,33.118-17.041,45.79
				c-12.493,13.244-29.961,20.838-47.923,20.838c-6.451,0-12.732-1.024-18.654-3.021c1.135,4.753,2.799,9.378,4.983,13.747
				l6.34,12.689c2.005,3.977,1.801,8.636-0.546,12.442c-2.355,3.806-6.417,6.084-10.897,6.084h-71.526
				c-4.471,0-8.533-2.27-10.889-6.076c-2.347-3.797-2.569-8.457-0.563-12.45l6.349-12.689c2.176-4.352,3.84-8.96,4.975-13.696
				c-5.879,1.98-12.1,2.97-18.637,2.97c-17.963,0-35.413-7.603-47.872-20.864c-11.972-12.732-17.988-29.065-16.947-45.986
				c1.186-19.456,12.664-37.367,31.462-49.161c9.66-6.067,19.729-9.412,30.08-10.001c-3.439-7.885-5.257-16.435-5.257-25.131
				C192.939,172.023,201.31,154.291,215.885,142.259z M103.134,115.994l34.133-76.8c1.374-3.081,4.42-5.06,7.799-5.06
				c3.371,0,6.426,1.98,7.799,5.06l34.133,76.8c1.911,4.309-0.026,9.353-4.335,11.273c-1.126,0.495-2.295,0.734-3.456,0.734
				c-3.277,0-6.391-1.886-7.808-5.069l-9.139-20.557c-0.043,0-0.085,0.026-0.128,0.026H128c-0.043,0-0.085-0.026-0.128-0.026
				l-9.139,20.557c-1.92,4.301-6.946,6.246-11.264,4.335C103.16,125.346,101.222,120.303,103.134,115.994z M307.2,477.867H110.933
				c-4.719,0-8.533-3.823-8.533-8.533V179.2c0-4.719,3.814-8.533,8.533-8.533s8.533,3.814,8.533,8.533v281.6H307.2
				c4.719,0,8.533,3.814,8.533,8.533C315.733,474.044,311.919,477.867,307.2,477.867z M408.866,395.998l-34.133,76.8
				c-1.374,3.081-4.429,5.069-7.799,5.069c-3.379,0-6.426-1.988-7.799-5.069l-34.133-76.8c-1.911-4.309,0.026-9.353,4.335-11.264
				c4.309-1.911,9.344,0.026,11.264,4.335l9.139,20.557c0.043,0,0.085-0.026,0.128-0.026H384c0.043,0,0.085,0.026,0.128,0.026
				l9.139-20.557c1.911-4.301,6.972-6.246,11.264-4.335C408.841,386.645,410.778,391.689,408.866,395.998z"/>
		</g>
	</g>
</g>
</svg>